<svg width="132" height="23" viewBox="0 0 132 23" fill="none" xmlns="http://www.w3.org/2000/svg">
<g clip-path="url(#clip0)">
<path d="M21.0967 8.43294C21.039 8.26313 20.9329 8.11392 20.7914 8.00373C20.6499 7.89354 20.4793 7.8272 20.3005 7.81289L15.0714 7.39738L12.8086 2.38837C12.7365 2.22704 12.6193 2.09001 12.4711 1.99383C12.3228 1.89764 12.15 1.84641 11.9733 1.84631C11.7966 1.84622 11.6236 1.89726 11.4753 1.99328C11.327 2.0893 11.2096 2.2262 11.1374 2.38745L8.87455 7.39738L3.64539 7.81289C3.4697 7.82681 3.30174 7.89105 3.1616 7.99793C3.02147 8.1048 2.91509 8.24979 2.85519 8.41554C2.7953 8.58129 2.78442 8.76079 2.82387 8.93256C2.86332 9.10433 2.95142 9.2611 3.07763 9.38411L6.94193 13.1512L5.57526 19.0692C5.53376 19.2483 5.54706 19.4358 5.61343 19.6073C5.6798 19.7788 5.79618 19.9263 5.94747 20.0309C6.09876 20.1354 6.27797 20.192 6.46184 20.1934C6.64571 20.1948 6.82576 20.1409 6.97862 20.0387L11.973 16.7091L16.9673 20.0387C17.1235 20.1424 17.3078 20.1958 17.4953 20.1917C17.6828 20.1876 17.8645 20.1262 18.0161 20.0157C18.1676 19.9052 18.2817 19.751 18.3429 19.5737C18.4042 19.3965 18.4097 19.2047 18.3587 19.0242L16.6811 13.1539L20.8417 9.4098C21.1141 9.16398 21.2141 8.78057 21.0967 8.43294Z" fill="#E77C40"/>
<path d="M48.1116 8.43294C48.054 8.26313 47.9479 8.11392 47.8064 8.00373C47.6649 7.89354 47.4942 7.8272 47.3155 7.81289L42.0863 7.39738L39.8235 2.38837C39.7515 2.22704 39.6342 2.09001 39.486 1.99383C39.3378 1.89764 39.1649 1.84641 38.9882 1.84631C38.8115 1.84622 38.6386 1.89726 38.4902 1.99328C38.3419 2.0893 38.2246 2.2262 38.1523 2.38745L35.8895 7.39738L30.6603 7.81289C30.4847 7.82681 30.3167 7.89105 30.1766 7.99793C30.0364 8.1048 29.93 8.24979 29.8701 8.41554C29.8102 8.58129 29.7994 8.76079 29.8388 8.93256C29.8783 9.10433 29.9664 9.2611 30.0926 9.38411L33.9569 13.1512L32.5902 19.0692C32.5487 19.2483 32.562 19.4358 32.6284 19.6073C32.6948 19.7788 32.8111 19.9263 32.9624 20.0309C33.1137 20.1354 33.2929 20.192 33.4768 20.1934C33.6607 20.1948 33.8407 20.1409 33.9936 20.0387L38.9879 16.7091L43.9823 20.0387C44.1385 20.1424 44.3228 20.1958 44.5102 20.1917C44.6977 20.1876 44.8795 20.1262 45.031 20.0157C45.1826 19.9052 45.2966 19.751 45.3579 19.5737C45.4192 19.3965 45.4247 19.2047 45.3737 19.0242L43.6961 13.1539L47.8567 9.4098C48.1291 9.16398 48.2291 8.78057 48.1116 8.43294Z" fill="#E77C40"/>
<path d="M75.1226 8.43294C75.065 8.26313 74.9589 8.11392 74.8174 8.00373C74.6759 7.89354 74.5052 7.8272 74.3265 7.81289L69.0973 7.39738L66.8345 2.38837C66.7624 2.22704 66.6452 2.09001 66.497 1.99383C66.3488 1.89764 66.1759 1.84641 65.9992 1.84631C65.8225 1.84622 65.6496 1.89726 65.5012 1.99328C65.3529 2.0893 65.2355 2.2262 65.1633 2.38745L62.9005 7.39738L57.6713 7.81289C57.4956 7.82681 57.3277 7.89105 57.1875 7.99793C57.0474 8.1048 56.941 8.24979 56.8811 8.41554C56.8212 8.58129 56.8104 8.76079 56.8498 8.93256C56.8893 9.10433 56.9774 9.2611 57.1036 9.38411L60.9679 13.1512L59.6012 19.0692C59.5597 19.2483 59.573 19.4358 59.6394 19.6073C59.7057 19.7788 59.8221 19.9263 59.9734 20.0309C60.1247 20.1354 60.3039 20.192 60.4878 20.1934C60.6717 20.1948 60.8517 20.1409 61.0046 20.0387L65.9989 16.7091L70.9932 20.0387C71.1495 20.1424 71.3337 20.1958 71.5212 20.1917C71.7087 20.1876 71.8905 20.1262 72.042 20.0157C72.1935 19.9052 72.3076 19.751 72.3689 19.5737C72.4301 19.3965 72.4357 19.2047 72.3847 19.0242L70.7071 13.1539L74.8676 9.4098C75.1401 9.16398 75.24 8.78057 75.1226 8.43294Z" fill="#E77C40"/>
<path d="M102.137 8.43294C102.079 8.26313 101.973 8.11392 101.831 8.00373C101.69 7.89354 101.519 7.8272 101.341 7.81289L96.1114 7.39738L93.8485 2.38837C93.7765 2.22704 93.6593 2.09001 93.511 1.99383C93.3628 1.89764 93.1899 1.84641 93.0132 1.84631C92.8365 1.84622 92.6636 1.89726 92.5153 1.99328C92.3669 2.0893 92.2496 2.2262 92.1773 2.38745L89.9145 7.39738L84.6854 7.81289C84.5097 7.82681 84.3417 7.89105 84.2016 7.99793C84.0614 8.1048 83.9551 8.24979 83.8952 8.41554C83.8353 8.58129 83.8244 8.76079 83.8638 8.93256C83.9033 9.10433 83.9914 9.2611 84.1176 9.38411L87.9819 13.1512L86.6152 19.0692C86.5737 19.2483 86.587 19.4358 86.6534 19.6073C86.7198 19.7788 86.8362 19.9263 86.9874 20.0309C87.1387 20.1354 87.3179 20.192 87.5018 20.1934C87.6857 20.1948 87.8657 20.1409 88.0186 20.0387L93.0129 16.7091L98.0073 20.0387C98.1635 20.1424 98.3478 20.1958 98.5353 20.1917C98.7228 20.1876 98.9045 20.1262 99.056 20.0157C99.2076 19.9052 99.3217 19.751 99.3829 19.5737C99.4442 19.3965 99.4497 19.2047 99.3987 19.0242L97.7211 13.1539L101.882 9.4098C102.154 9.16398 102.254 8.78057 102.137 8.43294Z" fill="#E77C40"/>
<path d="M114.998 13.1513L113.631 19.0693C113.589 19.2485 113.601 19.4363 113.667 19.6082C113.734 19.7801 113.85 19.928 114.001 20.0327C114.153 20.1374 114.332 20.194 114.516 20.1951C114.701 20.1962 114.881 20.1418 115.033 20.0389L120.028 16.7093L125.022 20.0389C125.178 20.1426 125.363 20.196 125.55 20.1919C125.738 20.1878 125.919 20.1263 126.071 20.0159C126.222 19.9054 126.337 19.7511 126.398 19.5739C126.459 19.3966 126.465 19.2049 126.414 19.0244L124.736 13.1541L128.897 9.40995C129.03 9.28996 129.125 9.13355 129.17 8.96005C129.216 8.78656 129.209 8.60359 129.151 8.43377C129.094 8.26396 128.988 8.11474 128.846 8.00458C128.705 7.89442 128.534 7.82815 128.355 7.81396L123.126 7.39754L120.863 2.38852C120.791 2.22723 120.674 2.09027 120.526 1.99416C120.377 1.89806 120.205 1.84692 120.028 1.84692C119.851 1.84692 119.678 1.89806 119.53 1.99416C119.382 2.09027 119.264 2.22723 119.192 2.38852L116.929 7.39754L111.7 7.81304C111.525 7.82696 111.357 7.8912 111.216 7.99808C111.076 8.10495 110.97 8.24994 110.91 8.41569C110.85 8.58144 110.839 8.76094 110.879 8.93271C110.918 9.10448 111.006 9.26125 111.132 9.38426L114.998 13.1513ZM117.615 9.18339C117.778 9.17049 117.936 9.11379 118.07 9.01922C118.204 8.92465 118.31 8.7957 118.378 8.64589L120.028 4.99438L121.678 8.64589C121.745 8.7957 121.852 8.92465 121.986 9.01922C122.12 9.11379 122.277 9.17049 122.441 9.18339L126.084 9.47232L123.084 12.1727C122.824 12.4075 122.72 12.7689 122.815 13.1064L123.965 17.1285L120.538 14.8436C120.387 14.7427 120.21 14.6888 120.029 14.6888C119.848 14.6888 119.671 14.7427 119.521 14.8436L115.94 17.2312L116.903 13.0615C116.938 12.9081 116.933 12.7482 116.889 12.5972C116.845 12.4462 116.762 12.3092 116.65 12.1993L113.863 9.48241L117.615 9.18339Z" fill="#E77C40"/>
</g>
<defs>
<clipPath id="clip0">
<rect width="130.068" height="22.0136" fill="white" transform="translate(0.965942 0.0136719)"/>
</clipPath>
</defs>
</svg>
